<?xml version="1.0" standalone="no"?>
<!DOCTYPE svg PUBLIC "-//W3C//DTD SVG 20010904//EN"
 "http://www.w3.org/TR/2001/REC-SVG-20010904/DTD/svg10.dtd">
<svg version="1.0" xmlns="http://www.w3.org/2000/svg"
 width="183.000000pt" height="300.000000pt" viewBox="0 0 183.000000 300.000000"
 preserveAspectRatio="xMidYMid meet">

<g transform="translate(0.000000,300.000000) scale(0.100000,-0.100000)"
fill="#000000" stroke="none">
<path d="M12 1508 l3 -1493 900 0 900 0 3 1493 2 1492 -905 0 -905 0 2 -1492z
m1748 -3 l0 -1435 -845 0 -845 0 0 1435 0 1435 845 0 845 0 0 -1435z"/>
<path d="M485 2655 c-31 -30 -32 -73 -4 -109 l20 -26 350 0 c192 0 349 -2 349
-4 0 -2 -89 -136 -198 -297 -598 -887 -612 -909 -612 -937 0 -16 9 -41 21 -56
l20 -26 483 0 483 0 21 23 c28 30 28 76 1 111 l-20 26 -380 0 c-226 0 -379 4
-379 9 0 5 180 277 400 605 432 642 428 636 377 684 -23 22 -25 22 -466 22
l-442 0 -24 -25z"/>
<path d="M580 865 c-9 -28 -9 -39 1 -51 10 -12 15 -9 35 27 26 44 24 59 -6 59
-12 0 -22 -12 -30 -35z"/>
<path d="M1362 847 c-16 -19 -55 -109 -81 -187 -12 -36 -31 -76 -42 -90 l-20
-25 6 35 c4 19 17 61 30 93 l23 58 -21 9 c-13 4 -27 4 -34 -2 -7 -6 -19 -6
-32 1 -28 15 -29 15 -63 -21 l-30 -32 -16 21 c-26 32 -59 46 -82 33 -23 -12
-50 -60 -50 -88 0 -10 -8 -26 -18 -36 -18 -16 -19 -14 -18 45 1 49 -3 64 -17
73 -15 9 -22 7 -39 -14 -19 -23 -20 -23 -14 -4 5 16 2 23 -14 27 -22 6 -30 -5
-50 -68 -21 -66 -68 -107 -49 -43 15 55 11 86 -13 99 -19 10 -25 8 -45 -17
l-24 -29 10 26 c8 23 7 28 -9 32 -24 6 -33 -5 -53 -67 -20 -59 -69 -145 -74
-129 -4 10 30 116 51 165 5 11 1 20 -13 27 -28 16 -45 -13 -73 -122 -23 -87
-23 -87 -55 -87 -38 0 -41 9 -12 36 12 10 32 38 46 62 22 38 24 46 13 72 -17
41 -38 51 -71 35 -30 -16 -79 -77 -79 -99 0 -27 23 -30 39 -5 31 46 70 85 71
68 0 -27 -76 -143 -104 -157 -31 -16 -40 -70 -8 -57 9 4 45 13 78 19 56 11 62
11 73 -6 14 -22 29 -23 51 -3 17 15 17 12 3 -47 -13 -58 -13 -63 4 -75 16 -12
19 -10 26 19 28 114 25 108 53 96 23 -11 29 -8 75 41 28 29 52 51 53 49 2 -1
-6 -43 -19 -93 -23 -94 -23 -110 1 -119 16 -6 17 -5 34 76 11 56 12 57 36 46
23 -11 29 -8 72 36 l46 48 13 -39 c19 -54 38 -66 74 -47 35 18 47 57 29 98
-27 65 -22 126 11 126 15 0 10 -28 -6 -37 -9 -5 -12 -17 -8 -31 7 -27 15 -28
38 -2 29 32 33 24 19 -32 -19 -71 -18 -94 6 -118 25 -25 37 -19 58 29 15 34
16 35 21 12 4 -13 15 -29 24 -35 15 -9 22 -7 37 12 22 27 26 27 33 2 10 -39
37 -35 78 11 37 42 38 43 39 18 0 -38 35 -64 77 -60 17 2 71 73 89 118 l16 38
-55 -57 c-64 -67 -93 -76 -83 -27 3 17 6 35 6 40 0 5 14 9 30 9 23 0 35 7 50
33 28 46 25 72 -11 97 l-30 22 -25 -23 c-14 -13 -32 -45 -42 -71 -10 -30 -34
-65 -61 -91 l-44 -42 6 32 c4 17 24 55 45 83 22 28 51 75 66 103 25 50 25 51
8 81 -20 35 -43 44 -60 23z m13 -112 c-14 -32 -28 -56 -30 -53 -3 3 7 34 22
68 15 35 29 58 30 53 2 -6 -8 -37 -22 -68z m99 -86 c-25 -28 -28 -16 -7 28 16
34 18 36 21 15 2 -13 -4 -32 -14 -43z m-791 -1 c-8 -29 -21 -65 -29 -79 -16
-32 -44 -46 -44 -23 0 21 70 154 81 154 4 0 1 -24 -8 -52z m178 -21 c-21 -61
-54 -108 -67 -94 -4 3 1 24 10 47 20 51 66 124 73 117 3 -3 -5 -35 -16 -70z
m339 63 c0 -16 -74 -160 -82 -160 -14 0 29 126 55 158 11 14 27 16 27 2z
m-220 -117 c8 -21 16 -41 18 -45 7 -16 -23 -7 -45 14 -26 24 -29 38 -11 56 18
18 23 15 38 -25z"/>
</g>
</svg>
